<svg xmlns="http://www.w3.org/2000/svg" viewBox="0 0 64 64"><path fill="#fff" d="M5.408 14.682 30.202.478a3.617 3.617 0 0 1 3.596 0l24.794 14.204a3.616 3.616 0 0 1 1.819 3.138v28.359a3.615 3.615 0 0 1-1.819 3.138L33.798 63.522a3.617 3.617 0 0 1-3.596 0L5.408 49.318a3.616 3.616 0 0 1-1.819-3.138V17.821c0-1.297.694-2.494 1.819-3.139z"/><path fill="#3a3f99" d="M8.565 16.491 30.202 4.095a3.617 3.617 0 0 1 3.596 0L55.435 16.49a3.616 3.616 0 0 1 1.819 3.138V44.37a3.615 3.615 0 0 1-1.819 3.138L33.798 59.905a3.617 3.617 0 0 1-3.596 0L8.565 47.509a3.616 3.616 0 0 1-1.819-3.138V19.629c0-1.297.694-2.494 1.819-3.138z"/><circle cx="19.386" cy="30.699" r=".362" fill="#dbdbdb"/><circle cx="23.727" cy="19.486" r=".543" fill="#dbdbdb"/><circle cx="45.066" cy="32.507" r=".362" fill="#dbdbdb"/><circle cx="38.194" cy="45.889" r=".723" fill="#dbdbdb"/><circle cx="32" cy="32" r="16.276" fill="#f2f2f2" opacity=".1"/><circle cx="32" cy="32" r="13.951" fill="#f2f2f2" opacity=".2"/><circle cx="32" cy="32" r="11.626" fill="#f2f2f2" opacity=".3"/><circle cx="32" cy="32" r="8.68" fill="#f2f2f2"/><circle cx="32.362" cy="32.362" r="1.447" fill="#ededed"/><path fill="#dbdbdb" d="M32.362 30.915a1.47 1.47 0 0 0-.241.02 1.447 1.447 0 0 1 0 2.852 1.447 1.447 0 1 0 .241-2.872z"/><circle cx="28.021" cy="36.34" r="1.085" fill="#ededed"/><path fill="#dbdbdb" d="M28.021 35.255c-.062 0-.122.005-.181.015a1.085 1.085 0 0 1 0 2.14 1.085 1.085 0 1 0 .181-2.155z"/><circle cx="33.808" cy="37.787" r=".723" fill="#ededed"/><path fill="#dbdbdb" d="M33.808 37.064a.812.812 0 0 0-.121.01.723.723 0 0 1 0 1.426.723.723 0 1 0 .121-1.436z"/><circle cx="32.362" cy="25.128" r=".723" fill="#ededed"/><path fill="#dbdbdb" d="M32.362 24.405a.812.812 0 0 0-.121.01.723.723 0 0 1 0 1.426.723.723 0 1 0 .121-1.436z"/><circle cx="35.255" cy="28.383" r=".723" fill="#ededed"/><path fill="#dbdbdb" d="M35.255 27.66a.812.812 0 0 0-.121.01.723.723 0 0 1 0 1.426.723.723 0 1 0 .121-1.436z"/><circle cx="35.979" cy="34.532" r=".543" fill="#ededed"/><path fill="#dbdbdb" d="M35.979 33.989a.529.529 0 0 0-.09.008.542.542 0 0 1 0 1.07.543.543 0 1 0 .09-1.078z"/><circle cx="37.425" cy="37.787" r=".543" fill="#ededed"/><path fill="#dbdbdb" d="M37.425 37.244a.529.529 0 0 0-.09.008.542.542 0 0 1 0 1.07.543.543 0 1 0 .09-1.078z"/><circle cx="25.851" cy="35.255" r=".362" fill="#ededed"/><path fill="#dbdbdb" d="M25.851 34.893a.383.383 0 0 0-.06.005.361.361 0 0 1 0 .714.362.362 0 1 0 .06-.719z"/><circle cx="26.936" cy="29.83" r=".723" fill="#ededed"/><path fill="#dbdbdb" d="M26.936 29.107a.812.812 0 0 0-.121.01.723.723 0 0 1 0 1.426.723.723 0 1 0 .121-1.436z"/><circle cx="38.872" cy="30.553" r=".543" fill="#ededed"/><path fill="#dbdbdb" d="M38.872 30.011a.529.529 0 0 0-.09.008.542.542 0 0 1 0 1.07.543.543 0 1 0 .09-1.078z"/><circle cx="26.575" cy="27.66" r=".362" fill="#ededed"/><path fill="#dbdbdb" d="M26.575 27.298a.383.383 0 0 0-.06.005.361.361 0 0 1 0 .714.362.362 0 1 0 .06-.719z"/><circle cx="39.595" cy="31.638" r=".362" fill="#ededed"/><path fill="#dbdbdb" d="M39.595 31.277a.383.383 0 0 0-.06.005.361.361 0 0 1 0 .714.362.362 0 1 0 .06-.719z"/><circle cx="35.979" cy="25.851" r=".362" fill="#ededed"/><path fill="#dbdbdb" d="M35.979 25.49a.383.383 0 0 0-.06.005.361.361 0 0 1 0 .714.362.362 0 1 0 .06-.719z"/><path fill="#cecece" d="M32 23.32c-.493 0-.976.043-1.447.122 4.105.689 7.234 4.257 7.234 8.558s-3.129 7.869-7.234 8.558A8.68 8.68 0 0 0 40.68 32 8.68 8.68 0 0 0 32 23.32z" opacity=".25"/><circle cx="12.153" cy="18.401" r=".362" fill="#dbdbdb"/><circle cx="54.108" cy="29.252" r=".543" fill="#dbdbdb"/><circle cx="45.789" cy="19.486" r=".723" fill="#dbdbdb"/><circle cx="16.131" cy="45.166" r=".723" fill="#dbdbdb"/><circle cx="35.662" cy="8.998" r=".723" fill="#dbdbdb"/><circle cx="54.108" cy="44.443" r=".362" fill="#dbdbdb"/><circle cx="9.621" cy="36.847" r=".362" fill="#dbdbdb"/><circle cx="32.769" cy="54.931" r=".362" fill="#dbdbdb"/></svg>